<svg width="24" height="24" viewBox="0 0 24 24" fill="none" xmlns="http://www.w3.org/2000/svg">
<path fill-rule="evenodd" clip-rule="evenodd" d="M12 10.9312L17.719 5.21119C17.865 5.06519 18.058 4.99219 18.25 4.99219C18.654 4.99219 19 5.31619 19 5.74119C19 5.93419 18.927 6.12619 18.781 6.27319L13.061 11.9922L18.78 17.7112C18.927 17.8582 19 18.0502 19 18.2422C19 18.6692 18.651 18.9922 18.25 18.9922C18.058 18.9922 17.865 18.9192 17.719 18.7732L12 13.0542L6.281 18.7732C6.135 18.9192 5.942 18.9922 5.75 18.9922C5.349 18.9922 5 18.6692 5 18.2422C5 18.0502 5.073 17.8582 5.22 17.7112L10.939 11.9922L5.219 6.27319C5.073 6.12619 5 5.93419 5 5.74119C5 5.31619 5.346 4.99219 5.75 4.99219C5.942 4.99219 6.135 5.06519 6.281 5.21119L12 10.9312Z" fill="#374151"/>
</svg>
